<?xml version="1.0" encoding="UTF-8" standalone="no"?>
<!-- Created with Inkscape (http://www.inkscape.org/) -->

<svg
   xmlns:dc="http://purl.org/dc/elements/1.1/"
   xmlns:cc="http://creativecommons.org/ns#"
   xmlns:rdf="http://www.w3.org/1999/02/22-rdf-syntax-ns#"
   xmlns:svg="http://www.w3.org/2000/svg"
   xmlns="http://www.w3.org/2000/svg"
   xmlns:sodipodi="http://sodipodi.sourceforge.net/DTD/sodipodi-0.dtd"
   xmlns:inkscape="http://www.inkscape.org/namespaces/inkscape"
   width="112.88232mm"
   height="49.252377mm"
   viewBox="0 0 112.88232 49.252376"
   version="1.1"
   id="svg8"
   inkscape:version="0.92.3 (2405546, 2018-03-11)"
   sodipodi:docname="logo.svg">
  <defs
     id="defs2" />
  <sodipodi:namedview
     id="base"
     pagecolor="#ffffff"
     bordercolor="#666666"
     borderopacity="1.0"
     inkscape:pageopacity="0.0"
     inkscape:pageshadow="2"
     inkscape:zoom="1.979899"
     inkscape:cx="0.12944775"
     inkscape:cy="75.128394"
     inkscape:document-units="mm"
     inkscape:current-layer="text821"
     showgrid="false"
     fit-margin-left="5"
     fit-margin-right="5"
     fit-margin-top="5"
     fit-margin-bottom="5"
     inkscape:window-width="1853"
     inkscape:window-height="1016"
     inkscape:window-x="67"
     inkscape:window-y="68"
     inkscape:window-maximized="1">
    <inkscape:grid
       type="xygrid"
       id="grid867"
       originx="-58.83871"
       originy="-227.71631" />
  </sodipodi:namedview>
  <metadata
     id="metadata5">
    <rdf:RDF>
      <cc:Work
         rdf:about="">
        <dc:format>image/svg+xml</dc:format>
        <dc:type
           rdf:resource="http://purl.org/dc/dcmitype/StillImage" />
        <dc:title></dc:title>
      </cc:Work>
    </rdf:RDF>
  </metadata>
  <g
     inkscape:label="Layer 1"
     inkscape:groupmode="layer"
     id="layer1"
     transform="translate(-58.838708,-20.031319)">
    <g
       aria-label="g OtO  "
       style="font-style:normal;font-weight:normal;font-size:11.28888893px;line-height:6.72041655px;font-family:sans-serif;letter-spacing:0px;word-spacing:0px;fill:#000000;fill-opacity:1;stroke:none;stroke-width:0.26458332"
       id="text821"
       transform="matrix(2,0,0,2,-115.27987,-44.656604)">
      <path
         d="m 92.460059,48.158207 q -0.254937,0.337619 -0.56155,0.496093 -0.306614,0.158475 -0.70969,0.158475 -0.706245,0 -1.167887,-0.554661 -0.461643,-0.558105 -0.461643,-1.419379 0,-0.864719 0.461643,-1.415934 0.461642,-0.554661 1.167887,-0.554661 0.403076,0 0.70969,0.158475 0.306613,0.158474 0.56155,0.499539 v -0.571886 h 1.240235 v 3.469211 q 0,0.930176 -0.589112,1.419379 -0.585666,0.492649 -1.701877,0.492649 -0.361735,0 -0.699354,-0.05512 -0.33762,-0.05512 -0.678684,-0.168809 v -0.961182 q 0.323839,0.186035 0.633897,0.275608 0.310059,0.09302 0.623563,0.09302 0.606337,0 0.888834,-0.265272 0.282498,-0.265272 0.282498,-0.830268 z m -0.813042,-2.401232 q -0.382406,0 -0.596002,0.282498 -0.213596,0.282498 -0.213596,0.799262 0,0.530545 0.206706,0.806152 0.206706,0.272163 0.602892,0.272163 0.38585,0 0.599446,-0.282498 0.213596,-0.282498 0.213596,-0.795817 0,-0.516764 -0.213596,-0.799262 -0.213596,-0.282498 -0.599446,-0.282498 z"
         style="font-style:normal;font-variant:normal;font-weight:bold;font-stretch:normal;font-size:7.05555534px;line-height:6.72041655px;font-family:sans-serif;-inkscape-font-specification:'sans-serif Bold';fill:#000000;fill-opacity:1;stroke-width:0.26458332"
         id="path4632"
         inkscape:connector-curvature="0" />
      <path
         d="m 98.563285,45.249583 q -0.514463,0 -0.798002,0.374964 -0.283539,0.374962 -0.283539,1.055665 0,0.677817 0.283539,1.052779 0.283539,0.374964 0.798002,0.374964 0.517386,0 0.800925,-0.374964 0.28354,-0.374962 0.28354,-1.052779 0,-0.680703 -0.28354,-1.055665 -0.283539,-0.374964 -0.800925,-0.374964 z m 0,-0.804727 q 1.052311,0 1.648625,0.594171 0.5963,0.594173 0.5963,1.641185 0,1.044126 -0.5963,1.638299 -0.596314,0.594171 -1.648625,0.594171 -1.049387,0 -1.64862,-0.594171 -0.596308,-0.594173 -0.596308,-1.638299 0,-1.047012 0.596308,-1.641185 0.599233,-0.594171 1.64862,-0.594171 z"
         style="fill:#55d400;stroke-width:0.22299972"
         id="path4634"
         inkscape:connector-curvature="0" />
      <path
         d="m 103.0992,43.858727 v 1.095541 h 1.27124 v 0.881944 h -1.27124 v 1.636421 q 0,0.268717 0.1068,0.36518 0.1068,0.09302 0.42375,0.09302 h 0.63389 v 0.881945 H 103.206 q -0.73036,0 -1.03697,-0.303169 -0.30317,-0.306613 -0.30317,-1.036973 v -1.636421 h -0.61323 v -0.881944 h 0.61323 V 43.85873 Z"
         style="fill:#55d400"
         id="path4636"
         inkscape:connector-curvature="0" />
      <path
         d="m 107.53304,44.537411 q -0.60634,0 -0.94051,0.447863 -0.33417,0.447862 -0.33417,1.260905 0,0.809597 0.33417,1.257459 0.33417,0.447863 0.94051,0.447863 0.60978,0 0.94396,-0.447863 0.33417,-0.447862 0.33417,-1.257459 0,-0.813043 -0.33417,-1.260905 -0.33418,-0.447863 -0.94396,-0.447863 z m 0,-0.961181 q 1.24023,0 1.94303,0.709689 0.7028,0.70969 0.7028,1.96026 0,1.247124 -0.7028,1.956814 -0.7028,0.709689 -1.94303,0.709689 -1.23679,0 -1.94303,-0.709689 -0.7028,-0.70969 -0.7028,-1.956814 0,-1.25057 0.7028,-1.96026 0.70624,-0.709689 1.94303,-0.709689 z"
         style="fill:#55d400"
         id="path4638"
         inkscape:connector-curvature="0" />
    </g>
    <path
       style="fill:none;stroke:#55d400;stroke-width:2;stroke-linecap:round;stroke-linejoin:miter;stroke-miterlimit:4;stroke-dasharray:none;stroke-opacity:1"
       d="m 79.117308,58.388682 c 0.961488,3.209808 5.933522,8.379968 20.576762,1.475546"
       id="path903"
       inkscape:connector-curvature="0"
       sodipodi:nodetypes="cc" />
    <path
       sodipodi:type="star"
       style="opacity:1;fill:#55d400;fill-opacity:1;fill-rule:nonzero;stroke:#55d400;stroke-width:1;stroke-linecap:round;stroke-linejoin:round;stroke-miterlimit:4;stroke-dasharray:none;stroke-opacity:1"
       id="path905"
       sodipodi:sides="3"
       sodipodi:cx="107.72321"
       sodipodi:cy="51.882439"
       sodipodi:r1="2.0045221"
       sodipodi:r2="1.002261"
       sodipodi:arg1="1.4288971"
       sodipodi:arg2="2.4760946"
       inkscape:flatsided="false"
       inkscape:rounded="0"
       inkscape:randomized="0"
       d="m 108.0067,53.866814 -1.07187,-1.365528 -1.07188,-1.365528 1.71852,-0.245507 1.71852,-0.245506 -0.64665,1.611034 z"
       inkscape:transform-center-x="0.15343734"
       inkscape:transform-center-y="0.45986015"
       transform="matrix(1.082478,0,0,1.2317388,-16.211157,-4.6429824)" />
    <g
       aria-label="publication"
       style="font-style:normal;font-weight:normal;font-size:5.64444447px;line-height:1.25;font-family:sans-serif;letter-spacing:0px;word-spacing:0px;fill:#000000;fill-opacity:1;stroke:none;stroke-width:0.26458332"
       id="text911"
       transform="matrix(2,0,0,2,-115.27987,-44.656604)">
      <path
         d="m 111.24309,52.007343 v 1.637109 h -0.50987 v -4.260894 h 0.50987 v 0.468533 q 0.15986,-0.275608 0.40239,-0.407899 0.24529,-0.135048 0.58429,-0.135048 0.56224,0 0.91226,0.446484 0.35278,0.446485 0.35278,1.174089 0,0.727604 -0.35278,1.174088 -0.35002,0.446485 -0.91226,0.446485 -0.339,0 -0.58429,-0.132292 -0.24253,-0.135048 -0.40239,-0.410655 z m 1.72531,-1.077626 q 0,-0.559484 -0.23151,-0.876432 -0.22876,-0.319705 -0.63115,-0.319705 -0.40238,0 -0.63389,0.319705 -0.22876,0.316948 -0.22876,0.876432 0,0.559483 0.22876,0.879188 0.23151,0.316949 0.63389,0.316949 0.40239,0 0.63115,-0.316949 0.23151,-0.319705 0.23151,-0.879188 z"
         style="font-size:5.64444447px;stroke-width:0.26458332"
         id="path4641"
         inkscape:connector-curvature="0" />
      <path
         d="m 114.28305,51.252178 v -1.86862 h 0.50711 v 1.849327 q 0,0.438216 0.17088,0.658703 0.17088,0.21773 0.51263,0.21773 0.41066,0 0.64768,-0.261828 0.23978,-0.261827 0.23978,-0.713823 v -1.750109 h 0.50711 v 3.086806 h -0.50711 v -0.474046 q -0.18466,0.28112 -0.42995,0.418924 -0.24254,0.135048 -0.565,0.135048 -0.53192,0 -0.80753,-0.330729 -0.2756,-0.33073 -0.2756,-0.967383 z m 1.27606,-1.943034 z"
         style="font-size:5.64444447px;stroke-width:0.26458332"
         id="path4643"
         inkscape:connector-curvature="0" />
      <path
         d="m 120.1342,50.929717 q 0,-0.559484 -0.23151,-0.876432 -0.22876,-0.319705 -0.63115,-0.319705 -0.40238,0 -0.63389,0.319705 -0.22876,0.316948 -0.22876,0.876432 0,0.559483 0.22876,0.879188 0.23151,0.316949 0.63389,0.316949 0.40239,0 0.63115,-0.316949 0.23151,-0.319705 0.23151,-0.879188 z m -1.72531,-1.077626 q 0.15985,-0.275608 0.40239,-0.407899 0.24529,-0.135048 0.58429,-0.135048 0.56224,0 0.91226,0.446484 0.35278,0.446485 0.35278,1.174089 0,0.727604 -0.35278,1.174088 -0.35002,0.446485 -0.91226,0.446485 -0.339,0 -0.58429,-0.132292 -0.24254,-0.135048 -0.40239,-0.410655 v 0.463021 h -0.50987 v -4.288455 h 0.50987 z"
         style="font-size:5.64444447px;stroke-width:0.26458332"
         id="path4645"
         inkscape:connector-curvature="0" />
      <path
         d="m 121.50121,48.181909 h 0.50712 v 4.288455 h -0.50712 z"
         style="font-size:5.64444447px;stroke-width:0.26458332"
         id="path4647"
         inkscape:connector-curvature="0" />
      <path
         d="m 123.06666,49.383558 h 0.50712 v 3.086806 h -0.50712 z m 0,-1.201649 h 0.50712 v 0.642166 h -0.50712 z"
         style="font-size:5.64444447px;stroke-width:0.26458332"
         id="path4649"
         inkscape:connector-curvature="0" />
      <path
         d="m 126.85351,49.502069 v 0.474045 q -0.21497,-0.118511 -0.4327,-0.176388 -0.21498,-0.06063 -0.43546,-0.06063 -0.49334,0 -0.76619,0.314193 -0.27286,0.311436 -0.27286,0.876432 0,0.564996 0.27286,0.879188 0.27285,0.311437 0.76619,0.311437 0.22048,0 0.43546,-0.05788 0.21773,-0.06063 0.4327,-0.179145 v 0.468533 q -0.21222,0.09922 -0.44097,0.148828 -0.226,0.04961 -0.48232,0.04961 -0.69728,0 -1.10794,-0.438216 -0.41065,-0.438216 -0.41065,-1.182357 0,-0.755165 0.41341,-1.187869 0.41616,-0.432704 1.13826,-0.432704 0.23426,0 0.45751,0.04961 0.22324,0.04685 0.4327,0.143316 z"
         style="font-size:5.64444447px;stroke-width:0.26458332"
         id="path4651"
         inkscape:connector-curvature="0" />
      <path
         d="m 129.14381,50.918693 q -0.61461,0 -0.85163,0.14056 -0.23702,0.140559 -0.23702,0.479557 0,0.270095 0.17639,0.429948 0.17914,0.157096 0.48507,0.157096 0.42168,0 0.67524,-0.297656 0.25631,-0.300413 0.25631,-0.796506 v -0.112999 z m 1.01148,-0.209462 v 1.761133 h -0.50712 v -0.468533 q -0.17363,0.281119 -0.4327,0.416167 -0.25907,0.132292 -0.6339,0.132292 -0.47405,0 -0.75517,-0.264584 -0.27836,-0.267339 -0.27836,-0.713823 0,-0.520899 0.34727,-0.785482 0.35002,-0.264583 1.04179,-0.264583 h 0.71107 v -0.04961 q 0,-0.350021 -0.23151,-0.540191 -0.22875,-0.192925 -0.64492,-0.192925 -0.26458,0 -0.51539,0.06339 -0.2508,0.06339 -0.48231,0.190169 v -0.468533 q 0.27836,-0.107487 0.54019,-0.159852 0.26183,-0.05512 0.50987,-0.05512 0.66973,0 1.00046,0.347266 0.33073,0.347265 0.33073,1.052821 z"
         style="font-size:5.64444447px;stroke-width:0.26458332"
         id="path4653"
         inkscape:connector-curvature="0" />
      <path
         d="m 131.7042,48.507126 v 0.876432 h 1.04456 v 0.394119 h -1.04456 v 1.675694 q 0,0.377583 0.10198,0.48507 0.10473,0.107487 0.42168,0.107487 h 0.5209 v 0.424436 h -0.5209 q -0.58705,0 -0.81029,-0.21773 -0.22324,-0.220487 -0.22324,-0.799263 v -1.675694 h -0.37207 v -0.394119 h 0.37207 v -0.876432 z"
         style="font-size:5.64444447px;stroke-width:0.26458332"
         id="path4655"
         inkscape:connector-curvature="0" />
      <path
         d="m 133.41848,49.383558 h 0.50712 v 3.086806 h -0.50712 z m 0,-1.201649 h 0.50712 v 0.642166 h -0.50712 z"
         style="font-size:5.64444447px;stroke-width:0.26458332"
         id="path4657"
         inkscape:connector-curvature="0" />
      <path
         d="m 136.18007,49.739092 q -0.4079,0 -0.64492,0.319705 -0.23702,0.316949 -0.23702,0.87092 0,0.553971 0.23426,0.873676 0.23703,0.316949 0.64768,0.316949 0.40515,0 0.64217,-0.319705 0.23702,-0.319705 0.23702,-0.87092 0,-0.548459 -0.23702,-0.868164 -0.23702,-0.322461 -0.64217,-0.322461 z m 0,-0.429948 q 0.66146,0 1.03904,0.429948 0.37759,0.429948 0.37759,1.190625 0,0.757921 -0.37759,1.190625 -0.37758,0.429948 -1.03904,0.429948 -0.66421,0 -1.04179,-0.429948 -0.37483,-0.432704 -0.37483,-1.190625 0,-0.760677 0.37483,-1.190625 0.37758,-0.429948 1.04179,-0.429948 z"
         style="font-size:5.64444447px;stroke-width:0.26458332"
         id="path4659"
         inkscape:connector-curvature="0" />
      <path
         d="m 141.00045,50.607256 v 1.863108 h -0.50712 v -1.846572 q 0,-0.438216 -0.17087,-0.655946 -0.17088,-0.21773 -0.51263,-0.21773 -0.41066,0 -0.64768,0.261827 -0.23703,0.261828 -0.23703,0.713824 v 1.744597 h -0.50987 v -3.086806 h 0.50987 v 0.479557 q 0.18191,-0.278363 0.4272,-0.416167 0.24804,-0.137804 0.5705,-0.137804 0.53193,0 0.80478,0.330729 0.27285,0.327973 0.27285,0.967383 z"
         style="font-size:5.64444447px;stroke-width:0.26458332"
         id="path4661"
         inkscape:connector-curvature="0" />
    </g>
    <path
       style="fill:none;stroke:#55d400;stroke-width:2;stroke-linecap:round;stroke-linejoin:miter;stroke-miterlimit:4;stroke-dasharray:none;stroke-opacity:1"
       d="M 83.609948,38.762411 C 83.457949,31.277983 79.592982,28.898959 75.48346,26.856161"
       id="path921"
       inkscape:connector-curvature="0"
       sodipodi:nodetypes="cc" />
    <path
       style="fill:none;stroke:#55d400;stroke-width:2;stroke-linecap:round;stroke-linejoin:miter;stroke-miterlimit:4;stroke-dasharray:none;stroke-opacity:1"
       d="m 89.325458,37.504345 c 0.87832,-12.562178 4.34632,-13.607028 4.34672,-13.607144"
       id="path923"
       inkscape:connector-curvature="0"
       sodipodi:nodetypes="cc" />
    <path
       style="fill:none;stroke:#55d400;stroke-width:2;stroke-linecap:round;stroke-linejoin:miter;stroke-miterlimit:4;stroke-dasharray:none;stroke-opacity:1"
       d="m 95.552569,39.988052 c 0.24332,-5.948202 5.183941,-6.024782 9.260421,-7.181548"
       id="path925"
       inkscape:connector-curvature="0"
       sodipodi:nodetypes="cc" />
  </g>
</svg>
